<mxfile host="app.diagrams.net" modified="2024-03-04T09:38:10.525Z" agent="Mozilla/5.0 (Windows NT 10.0; Win64; x64) AppleWebKit/537.36 (KHTML, like Gecko) Chrome/122.0.0.0 Safari/537.36" etag="qx-ujy9iH631b7ruaNNg" version="22.1.21" type="github">
  <diagram name="第 1 页" id="OudscjH47Z-tdpIDr5dH">
    <mxGraphModel dx="1134" dy="649" grid="1" gridSize="10" guides="1" tooltips="1" connect="1" arrows="1" fold="1" page="1" pageScale="1" pageWidth="1169" pageHeight="1654" math="0" shadow="0">
      <root>
        <mxCell id="0" />
        <mxCell id="1" parent="0" />
        <mxCell id="QU69OevxGvZ5Ek9eJyny-137" value="" style="rounded=1;whiteSpace=wrap;html=1;dashed=1;fillColor=none;" vertex="1" parent="1">
          <mxGeometry x="114" y="175" width="940" height="490" as="geometry" />
        </mxCell>
        <mxCell id="QU69OevxGvZ5Ek9eJyny-138" style="edgeStyle=orthogonalEdgeStyle;rounded=0;orthogonalLoop=1;jettySize=auto;html=1;exitX=0.5;exitY=1;exitDx=0;exitDy=0;" edge="1" parent="1" source="ohJBT81rpFfPEfOSVebR-1" target="ohJBT81rpFfPEfOSVebR-2">
          <mxGeometry relative="1" as="geometry" />
        </mxCell>
        <mxCell id="ohJBT81rpFfPEfOSVebR-1" value="&lt;font style=&quot;font-size: 18px;&quot; face=&quot;Times New Roman&quot;&gt;Start&lt;/font&gt;" style="rounded=1;whiteSpace=wrap;html=1;" parent="1" vertex="1">
          <mxGeometry x="554" y="20" width="60" height="40" as="geometry" />
        </mxCell>
        <mxCell id="QU69OevxGvZ5Ek9eJyny-147" style="edgeStyle=orthogonalEdgeStyle;rounded=0;orthogonalLoop=1;jettySize=auto;html=1;exitX=0.5;exitY=1;exitDx=0;exitDy=0;entryX=0.5;entryY=0;entryDx=0;entryDy=0;" edge="1" parent="1" source="ohJBT81rpFfPEfOSVebR-2" target="QU69OevxGvZ5Ek9eJyny-137">
          <mxGeometry relative="1" as="geometry" />
        </mxCell>
        <mxCell id="ohJBT81rpFfPEfOSVebR-2" value="&lt;font style=&quot;font-size: 18px;&quot; face=&quot;Times New Roman&quot;&gt;Sleep 300&lt;/font&gt;" style="rounded=1;whiteSpace=wrap;html=1;" parent="1" vertex="1">
          <mxGeometry x="534" y="90" width="100" height="40" as="geometry" />
        </mxCell>
        <mxCell id="ohJBT81rpFfPEfOSVebR-6" value="&lt;font face=&quot;Times New Roman&quot; style=&quot;font-size: 24px;&quot;&gt;Check Erp Condition&lt;/font&gt;" style="text;html=1;strokeColor=none;fillColor=none;align=center;verticalAlign=middle;whiteSpace=wrap;rounded=0;" parent="1" vertex="1">
          <mxGeometry x="95.03" y="140" width="220" height="30" as="geometry" />
        </mxCell>
        <mxCell id="ohJBT81rpFfPEfOSVebR-18" style="edgeStyle=orthogonalEdgeStyle;rounded=0;orthogonalLoop=1;jettySize=auto;html=1;exitX=0.5;exitY=1;exitDx=0;exitDy=0;" parent="1" source="ohJBT81rpFfPEfOSVebR-7" target="ohJBT81rpFfPEfOSVebR-8" edge="1">
          <mxGeometry relative="1" as="geometry" />
        </mxCell>
        <mxCell id="ohJBT81rpFfPEfOSVebR-7" value="Check WiFi Status" style="rounded=1;whiteSpace=wrap;html=1;" parent="1" vertex="1">
          <mxGeometry x="429" y="200" width="110" height="30" as="geometry" />
        </mxCell>
        <mxCell id="ohJBT81rpFfPEfOSVebR-19" style="edgeStyle=orthogonalEdgeStyle;rounded=0;orthogonalLoop=1;jettySize=auto;html=1;exitX=0.5;exitY=1;exitDx=0;exitDy=0;entryX=0;entryY=0.5;entryDx=0;entryDy=0;" parent="1" source="ohJBT81rpFfPEfOSVebR-8" target="ohJBT81rpFfPEfOSVebR-9" edge="1">
          <mxGeometry relative="1" as="geometry">
            <Array as="points">
              <mxPoint x="484" y="300" />
              <mxPoint x="379" y="300" />
              <mxPoint x="379" y="325" />
            </Array>
          </mxGeometry>
        </mxCell>
        <mxCell id="ohJBT81rpFfPEfOSVebR-8" value="ra0 is up?" style="rhombus;whiteSpace=wrap;html=1;" parent="1" vertex="1">
          <mxGeometry x="434" y="250" width="100" height="40" as="geometry" />
        </mxCell>
        <mxCell id="ohJBT81rpFfPEfOSVebR-30" style="edgeStyle=orthogonalEdgeStyle;rounded=0;orthogonalLoop=1;jettySize=auto;html=1;entryX=1;entryY=0.5;entryDx=0;entryDy=0;" parent="1" source="ohJBT81rpFfPEfOSVebR-9" target="ohJBT81rpFfPEfOSVebR-11" edge="1">
          <mxGeometry relative="1" as="geometry">
            <Array as="points">
              <mxPoint x="569" y="325" />
              <mxPoint x="569" y="420" />
            </Array>
          </mxGeometry>
        </mxCell>
        <mxCell id="ohJBT81rpFfPEfOSVebR-9" value="WIFI_2G_ENABLE=0" style="rounded=1;whiteSpace=wrap;html=1;" parent="1" vertex="1">
          <mxGeometry x="424" y="310" width="120" height="30" as="geometry" />
        </mxCell>
        <mxCell id="ohJBT81rpFfPEfOSVebR-10" value="WIFI_2G_ENABLE=1" style="rounded=1;whiteSpace=wrap;html=1;" parent="1" vertex="1">
          <mxGeometry x="424" y="350" width="120" height="30" as="geometry" />
        </mxCell>
        <mxCell id="ohJBT81rpFfPEfOSVebR-32" style="edgeStyle=orthogonalEdgeStyle;rounded=0;orthogonalLoop=1;jettySize=auto;html=1;exitX=0;exitY=0.5;exitDx=0;exitDy=0;entryX=0;entryY=0.5;entryDx=0;entryDy=0;" parent="1" source="ohJBT81rpFfPEfOSVebR-11" target="ohJBT81rpFfPEfOSVebR-12" edge="1">
          <mxGeometry relative="1" as="geometry">
            <Array as="points">
              <mxPoint x="379" y="420" />
              <mxPoint x="379" y="475" />
            </Array>
          </mxGeometry>
        </mxCell>
        <mxCell id="ohJBT81rpFfPEfOSVebR-11" value="rai0 is up?" style="rhombus;whiteSpace=wrap;html=1;" parent="1" vertex="1">
          <mxGeometry x="434" y="400" width="100" height="40" as="geometry" />
        </mxCell>
        <mxCell id="QU69OevxGvZ5Ek9eJyny-103" style="edgeStyle=orthogonalEdgeStyle;rounded=0;orthogonalLoop=1;jettySize=auto;html=1;exitX=1;exitY=0.5;exitDx=0;exitDy=0;entryX=0;entryY=0.5;entryDx=0;entryDy=0;" edge="1" parent="1" source="ohJBT81rpFfPEfOSVebR-12" target="QU69OevxGvZ5Ek9eJyny-2">
          <mxGeometry relative="1" as="geometry">
            <Array as="points">
              <mxPoint x="590" y="475" />
              <mxPoint x="590" y="215" />
            </Array>
          </mxGeometry>
        </mxCell>
        <mxCell id="ohJBT81rpFfPEfOSVebR-12" value="WIFI_5G_ENABLE=0" style="rounded=1;whiteSpace=wrap;html=1;" parent="1" vertex="1">
          <mxGeometry x="424" y="460" width="120" height="30" as="geometry" />
        </mxCell>
        <mxCell id="ohJBT81rpFfPEfOSVebR-13" value="WIFI_5G_ENABLE=1" style="rounded=1;whiteSpace=wrap;html=1;" parent="1" vertex="1">
          <mxGeometry x="424" y="500" width="120" height="30" as="geometry" />
        </mxCell>
        <mxCell id="ohJBT81rpFfPEfOSVebR-22" value="" style="endArrow=none;html=1;rounded=0;" parent="1" edge="1">
          <mxGeometry width="50" height="50" relative="1" as="geometry">
            <mxPoint x="379" y="365" as="sourcePoint" />
            <mxPoint x="379" y="320" as="targetPoint" />
          </mxGeometry>
        </mxCell>
        <mxCell id="ohJBT81rpFfPEfOSVebR-25" value="" style="endArrow=classic;html=1;rounded=0;entryX=0;entryY=0.5;entryDx=0;entryDy=0;" parent="1" target="ohJBT81rpFfPEfOSVebR-10" edge="1">
          <mxGeometry width="50" height="50" relative="1" as="geometry">
            <mxPoint x="379" y="365" as="sourcePoint" />
            <mxPoint x="419" y="370" as="targetPoint" />
          </mxGeometry>
        </mxCell>
        <mxCell id="ohJBT81rpFfPEfOSVebR-26" value="Yes" style="text;html=1;strokeColor=none;fillColor=none;align=center;verticalAlign=middle;whiteSpace=wrap;rounded=0;" parent="1" vertex="1">
          <mxGeometry x="379" y="350" width="40" height="20" as="geometry" />
        </mxCell>
        <mxCell id="ohJBT81rpFfPEfOSVebR-27" value="No" style="text;html=1;strokeColor=none;fillColor=none;align=center;verticalAlign=middle;whiteSpace=wrap;rounded=0;" parent="1" vertex="1">
          <mxGeometry x="379" y="310" width="40" height="20" as="geometry" />
        </mxCell>
        <mxCell id="ohJBT81rpFfPEfOSVebR-31" value="" style="endArrow=none;html=1;rounded=0;" parent="1" edge="1">
          <mxGeometry width="50" height="50" relative="1" as="geometry">
            <mxPoint x="544" y="364.66" as="sourcePoint" />
            <mxPoint x="569" y="365" as="targetPoint" />
          </mxGeometry>
        </mxCell>
        <mxCell id="ohJBT81rpFfPEfOSVebR-33" value="" style="endArrow=none;html=1;rounded=0;" parent="1" edge="1">
          <mxGeometry width="50" height="50" relative="1" as="geometry">
            <mxPoint x="379" y="515" as="sourcePoint" />
            <mxPoint x="379" y="470" as="targetPoint" />
          </mxGeometry>
        </mxCell>
        <mxCell id="ohJBT81rpFfPEfOSVebR-34" value="" style="endArrow=classic;html=1;rounded=0;entryX=0;entryY=0.5;entryDx=0;entryDy=0;" parent="1" edge="1">
          <mxGeometry width="50" height="50" relative="1" as="geometry">
            <mxPoint x="379" y="515" as="sourcePoint" />
            <mxPoint x="424" y="515" as="targetPoint" />
          </mxGeometry>
        </mxCell>
        <mxCell id="ohJBT81rpFfPEfOSVebR-35" value="Yes" style="text;html=1;strokeColor=none;fillColor=none;align=center;verticalAlign=middle;whiteSpace=wrap;rounded=0;" parent="1" vertex="1">
          <mxGeometry x="379" y="500" width="40" height="20" as="geometry" />
        </mxCell>
        <mxCell id="ohJBT81rpFfPEfOSVebR-36" value="No" style="text;html=1;strokeColor=none;fillColor=none;align=center;verticalAlign=middle;whiteSpace=wrap;rounded=0;" parent="1" vertex="1">
          <mxGeometry x="379" y="460" width="40" height="20" as="geometry" />
        </mxCell>
        <mxCell id="QU69OevxGvZ5Ek9eJyny-1" style="edgeStyle=orthogonalEdgeStyle;rounded=0;orthogonalLoop=1;jettySize=auto;html=1;exitX=0.5;exitY=1;exitDx=0;exitDy=0;" edge="1" parent="1" source="QU69OevxGvZ5Ek9eJyny-2" target="QU69OevxGvZ5Ek9eJyny-4">
          <mxGeometry relative="1" as="geometry" />
        </mxCell>
        <mxCell id="QU69OevxGvZ5Ek9eJyny-2" value="Check DSL Status" style="rounded=1;whiteSpace=wrap;html=1;" vertex="1" parent="1">
          <mxGeometry x="660" y="200" width="110" height="30" as="geometry" />
        </mxCell>
        <mxCell id="QU69OevxGvZ5Ek9eJyny-3" style="edgeStyle=orthogonalEdgeStyle;rounded=0;orthogonalLoop=1;jettySize=auto;html=1;exitX=0.5;exitY=1;exitDx=0;exitDy=0;entryX=0;entryY=0.5;entryDx=0;entryDy=0;" edge="1" parent="1" source="QU69OevxGvZ5Ek9eJyny-4" target="QU69OevxGvZ5Ek9eJyny-6">
          <mxGeometry relative="1" as="geometry">
            <Array as="points">
              <mxPoint x="715" y="300" />
              <mxPoint x="610" y="300" />
              <mxPoint x="610" y="325" />
            </Array>
          </mxGeometry>
        </mxCell>
        <mxCell id="QU69OevxGvZ5Ek9eJyny-4" value="link status: down?" style="rhombus;whiteSpace=wrap;html=1;" vertex="1" parent="1">
          <mxGeometry x="642.5" y="250" width="145" height="40" as="geometry" />
        </mxCell>
        <mxCell id="QU69OevxGvZ5Ek9eJyny-5" style="edgeStyle=orthogonalEdgeStyle;rounded=0;orthogonalLoop=1;jettySize=auto;html=1;entryX=1;entryY=0.5;entryDx=0;entryDy=0;" edge="1" parent="1" source="QU69OevxGvZ5Ek9eJyny-6" target="QU69OevxGvZ5Ek9eJyny-15">
          <mxGeometry relative="1" as="geometry">
            <Array as="points">
              <mxPoint x="800" y="325" />
              <mxPoint x="800" y="420" />
            </Array>
            <mxPoint x="850" y="430" as="targetPoint" />
          </mxGeometry>
        </mxCell>
        <mxCell id="QU69OevxGvZ5Ek9eJyny-6" value="DSL_PLUG=1" style="rounded=1;whiteSpace=wrap;html=1;" vertex="1" parent="1">
          <mxGeometry x="655" y="310" width="120" height="30" as="geometry" />
        </mxCell>
        <mxCell id="QU69OevxGvZ5Ek9eJyny-7" value="DSL_PLUG=0" style="rounded=1;whiteSpace=wrap;html=1;" vertex="1" parent="1">
          <mxGeometry x="655" y="350" width="120" height="30" as="geometry" />
        </mxCell>
        <mxCell id="QU69OevxGvZ5Ek9eJyny-9" value="" style="endArrow=none;html=1;rounded=0;" edge="1" parent="1">
          <mxGeometry width="50" height="50" relative="1" as="geometry">
            <mxPoint x="610" y="365" as="sourcePoint" />
            <mxPoint x="610" y="320" as="targetPoint" />
          </mxGeometry>
        </mxCell>
        <mxCell id="QU69OevxGvZ5Ek9eJyny-10" value="" style="endArrow=classic;html=1;rounded=0;entryX=0;entryY=0.5;entryDx=0;entryDy=0;" edge="1" parent="1" target="QU69OevxGvZ5Ek9eJyny-7">
          <mxGeometry width="50" height="50" relative="1" as="geometry">
            <mxPoint x="610" y="365" as="sourcePoint" />
            <mxPoint x="650" y="370" as="targetPoint" />
          </mxGeometry>
        </mxCell>
        <mxCell id="QU69OevxGvZ5Ek9eJyny-11" value="Yes" style="text;html=1;strokeColor=none;fillColor=none;align=center;verticalAlign=middle;whiteSpace=wrap;rounded=0;" vertex="1" parent="1">
          <mxGeometry x="610" y="350" width="40" height="20" as="geometry" />
        </mxCell>
        <mxCell id="QU69OevxGvZ5Ek9eJyny-12" value="No" style="text;html=1;strokeColor=none;fillColor=none;align=center;verticalAlign=middle;whiteSpace=wrap;rounded=0;" vertex="1" parent="1">
          <mxGeometry x="610" y="310" width="40" height="20" as="geometry" />
        </mxCell>
        <mxCell id="QU69OevxGvZ5Ek9eJyny-13" value="" style="endArrow=none;html=1;rounded=0;" edge="1" parent="1">
          <mxGeometry width="50" height="50" relative="1" as="geometry">
            <mxPoint x="775" y="364.66" as="sourcePoint" />
            <mxPoint x="800" y="365" as="targetPoint" />
          </mxGeometry>
        </mxCell>
        <mxCell id="QU69OevxGvZ5Ek9eJyny-39" style="edgeStyle=orthogonalEdgeStyle;rounded=0;orthogonalLoop=1;jettySize=auto;html=1;entryX=0.5;entryY=0;entryDx=0;entryDy=0;" edge="1" parent="1" source="QU69OevxGvZ5Ek9eJyny-15" target="QU69OevxGvZ5Ek9eJyny-29">
          <mxGeometry relative="1" as="geometry" />
        </mxCell>
        <mxCell id="QU69OevxGvZ5Ek9eJyny-15" value="Check PON Status" style="rounded=1;whiteSpace=wrap;html=1;" vertex="1" parent="1">
          <mxGeometry x="660" y="407.5" width="110" height="25" as="geometry" />
        </mxCell>
        <mxCell id="QU69OevxGvZ5Ek9eJyny-28" style="edgeStyle=orthogonalEdgeStyle;rounded=0;orthogonalLoop=1;jettySize=auto;html=1;exitX=0.5;exitY=1;exitDx=0;exitDy=0;entryX=0;entryY=0.5;entryDx=0;entryDy=0;" edge="1" parent="1" source="QU69OevxGvZ5Ek9eJyny-29" target="QU69OevxGvZ5Ek9eJyny-30">
          <mxGeometry relative="1" as="geometry">
            <Array as="points">
              <mxPoint x="715" y="503.75" />
              <mxPoint x="610" y="503.75" />
              <mxPoint x="610" y="528.75" />
            </Array>
          </mxGeometry>
        </mxCell>
        <mxCell id="QU69OevxGvZ5Ek9eJyny-29" value="State is O3 or O4 or O5" style="rhombus;whiteSpace=wrap;html=1;" vertex="1" parent="1">
          <mxGeometry x="628.13" y="446.25" width="173.75" height="45" as="geometry" />
        </mxCell>
        <mxCell id="QU69OevxGvZ5Ek9eJyny-128" style="edgeStyle=orthogonalEdgeStyle;rounded=0;orthogonalLoop=1;jettySize=auto;html=1;exitX=1;exitY=0.5;exitDx=0;exitDy=0;entryX=0;entryY=0.5;entryDx=0;entryDy=0;" edge="1" parent="1" source="QU69OevxGvZ5Ek9eJyny-30" target="QU69OevxGvZ5Ek9eJyny-107">
          <mxGeometry relative="1" as="geometry">
            <Array as="points">
              <mxPoint x="820" y="529" />
              <mxPoint x="820" y="215" />
            </Array>
          </mxGeometry>
        </mxCell>
        <mxCell id="QU69OevxGvZ5Ek9eJyny-30" value="PON_PLUG=0" style="rounded=1;whiteSpace=wrap;html=1;" vertex="1" parent="1">
          <mxGeometry x="655" y="513.75" width="120" height="30" as="geometry" />
        </mxCell>
        <mxCell id="QU69OevxGvZ5Ek9eJyny-31" value="PON_PLUG=1" style="rounded=1;whiteSpace=wrap;html=1;" vertex="1" parent="1">
          <mxGeometry x="655" y="553.75" width="120" height="30" as="geometry" />
        </mxCell>
        <mxCell id="QU69OevxGvZ5Ek9eJyny-32" value="" style="endArrow=none;html=1;rounded=0;" edge="1" parent="1">
          <mxGeometry width="50" height="50" relative="1" as="geometry">
            <mxPoint x="610" y="568.75" as="sourcePoint" />
            <mxPoint x="610" y="523.75" as="targetPoint" />
          </mxGeometry>
        </mxCell>
        <mxCell id="QU69OevxGvZ5Ek9eJyny-33" value="" style="endArrow=classic;html=1;rounded=0;entryX=0;entryY=0.5;entryDx=0;entryDy=0;" edge="1" parent="1" target="QU69OevxGvZ5Ek9eJyny-31">
          <mxGeometry width="50" height="50" relative="1" as="geometry">
            <mxPoint x="610" y="568.75" as="sourcePoint" />
            <mxPoint x="650" y="573.75" as="targetPoint" />
          </mxGeometry>
        </mxCell>
        <mxCell id="QU69OevxGvZ5Ek9eJyny-34" value="Yes" style="text;html=1;strokeColor=none;fillColor=none;align=center;verticalAlign=middle;whiteSpace=wrap;rounded=0;" vertex="1" parent="1">
          <mxGeometry x="610" y="553.75" width="40" height="20" as="geometry" />
        </mxCell>
        <mxCell id="QU69OevxGvZ5Ek9eJyny-35" value="No" style="text;html=1;strokeColor=none;fillColor=none;align=center;verticalAlign=middle;whiteSpace=wrap;rounded=0;" vertex="1" parent="1">
          <mxGeometry x="610" y="513.75" width="40" height="20" as="geometry" />
        </mxCell>
        <mxCell id="QU69OevxGvZ5Ek9eJyny-89" style="edgeStyle=orthogonalEdgeStyle;rounded=0;orthogonalLoop=1;jettySize=auto;html=1;exitX=0.5;exitY=1;exitDx=0;exitDy=0;entryX=0.5;entryY=0;entryDx=0;entryDy=0;" edge="1" parent="1" source="QU69OevxGvZ5Ek9eJyny-64" target="QU69OevxGvZ5Ek9eJyny-88">
          <mxGeometry relative="1" as="geometry" />
        </mxCell>
        <mxCell id="QU69OevxGvZ5Ek9eJyny-64" value="Check LAN Status" style="rounded=1;whiteSpace=wrap;html=1;" vertex="1" parent="1">
          <mxGeometry x="200.01" y="200" width="110" height="30" as="geometry" />
        </mxCell>
        <mxCell id="QU69OevxGvZ5Ek9eJyny-91" style="edgeStyle=orthogonalEdgeStyle;rounded=0;orthogonalLoop=1;jettySize=auto;html=1;exitX=0.5;exitY=1;exitDx=0;exitDy=0;entryX=0.5;entryY=0;entryDx=0;entryDy=0;" edge="1" parent="1" source="QU69OevxGvZ5Ek9eJyny-66" target="QU69OevxGvZ5Ek9eJyny-85">
          <mxGeometry relative="1" as="geometry" />
        </mxCell>
        <mxCell id="QU69OevxGvZ5Ek9eJyny-99" style="edgeStyle=orthogonalEdgeStyle;rounded=0;orthogonalLoop=1;jettySize=auto;html=1;exitX=1;exitY=0.5;exitDx=0;exitDy=0;entryX=0.5;entryY=0;entryDx=0;entryDy=0;" edge="1" parent="1" source="QU69OevxGvZ5Ek9eJyny-66" target="QU69OevxGvZ5Ek9eJyny-76">
          <mxGeometry relative="1" as="geometry">
            <Array as="points">
              <mxPoint x="340" y="310" />
              <mxPoint x="340" y="440" />
              <mxPoint x="255" y="440" />
            </Array>
          </mxGeometry>
        </mxCell>
        <mxCell id="QU69OevxGvZ5Ek9eJyny-66" value="id &amp;lt; 3?" style="rhombus;whiteSpace=wrap;html=1;" vertex="1" parent="1">
          <mxGeometry x="211.26999999999998" y="290" width="87.49" height="40" as="geometry" />
        </mxCell>
        <mxCell id="QU69OevxGvZ5Ek9eJyny-75" style="edgeStyle=orthogonalEdgeStyle;rounded=0;orthogonalLoop=1;jettySize=auto;html=1;entryX=0.5;entryY=0;entryDx=0;entryDy=0;" edge="1" parent="1" source="QU69OevxGvZ5Ek9eJyny-76" target="QU69OevxGvZ5Ek9eJyny-78">
          <mxGeometry relative="1" as="geometry" />
        </mxCell>
        <mxCell id="QU69OevxGvZ5Ek9eJyny-76" value="Check ETH Status" style="rounded=1;whiteSpace=wrap;html=1;" vertex="1" parent="1">
          <mxGeometry x="200.02999999999997" y="460" width="110" height="25" as="geometry" />
        </mxCell>
        <mxCell id="QU69OevxGvZ5Ek9eJyny-77" style="edgeStyle=orthogonalEdgeStyle;rounded=0;orthogonalLoop=1;jettySize=auto;html=1;exitX=0.5;exitY=1;exitDx=0;exitDy=0;entryX=0;entryY=0.5;entryDx=0;entryDy=0;" edge="1" parent="1" source="QU69OevxGvZ5Ek9eJyny-78" target="QU69OevxGvZ5Ek9eJyny-79">
          <mxGeometry relative="1" as="geometry">
            <Array as="points">
              <mxPoint x="255.02999999999997" y="556.25" />
              <mxPoint x="150.02999999999997" y="556.25" />
              <mxPoint x="150.02999999999997" y="581.25" />
            </Array>
          </mxGeometry>
        </mxCell>
        <mxCell id="QU69OevxGvZ5Ek9eJyny-78" value="ETH link down?" style="rhombus;whiteSpace=wrap;html=1;" vertex="1" parent="1">
          <mxGeometry x="168.15999999999997" y="498.75" width="173.75" height="45" as="geometry" />
        </mxCell>
        <mxCell id="QU69OevxGvZ5Ek9eJyny-100" style="edgeStyle=orthogonalEdgeStyle;rounded=0;orthogonalLoop=1;jettySize=auto;html=1;exitX=1;exitY=0.5;exitDx=0;exitDy=0;entryX=0;entryY=0.5;entryDx=0;entryDy=0;" edge="1" parent="1" source="QU69OevxGvZ5Ek9eJyny-79" target="ohJBT81rpFfPEfOSVebR-7">
          <mxGeometry relative="1" as="geometry">
            <Array as="points">
              <mxPoint x="360" y="581" />
              <mxPoint x="360" y="215" />
            </Array>
          </mxGeometry>
        </mxCell>
        <mxCell id="QU69OevxGvZ5Ek9eJyny-79" value="ETH_PLUG=1" style="rounded=1;whiteSpace=wrap;html=1;" vertex="1" parent="1">
          <mxGeometry x="195.02999999999997" y="566.25" width="120" height="30" as="geometry" />
        </mxCell>
        <mxCell id="QU69OevxGvZ5Ek9eJyny-80" value="ETH_PLUG=0" style="rounded=1;whiteSpace=wrap;html=1;" vertex="1" parent="1">
          <mxGeometry x="195.02999999999997" y="606.25" width="120" height="30" as="geometry" />
        </mxCell>
        <mxCell id="QU69OevxGvZ5Ek9eJyny-81" value="" style="endArrow=none;html=1;rounded=0;" edge="1" parent="1">
          <mxGeometry width="50" height="50" relative="1" as="geometry">
            <mxPoint x="150.02999999999997" y="621.25" as="sourcePoint" />
            <mxPoint x="150.02999999999997" y="576.25" as="targetPoint" />
          </mxGeometry>
        </mxCell>
        <mxCell id="QU69OevxGvZ5Ek9eJyny-82" value="" style="endArrow=classic;html=1;rounded=0;entryX=0;entryY=0.5;entryDx=0;entryDy=0;" edge="1" parent="1" target="QU69OevxGvZ5Ek9eJyny-80">
          <mxGeometry width="50" height="50" relative="1" as="geometry">
            <mxPoint x="150.02999999999997" y="621.25" as="sourcePoint" />
            <mxPoint x="190.02999999999997" y="626.25" as="targetPoint" />
          </mxGeometry>
        </mxCell>
        <mxCell id="QU69OevxGvZ5Ek9eJyny-83" value="Yes" style="text;html=1;strokeColor=none;fillColor=none;align=center;verticalAlign=middle;whiteSpace=wrap;rounded=0;" vertex="1" parent="1">
          <mxGeometry x="150.02999999999997" y="606.25" width="40" height="20" as="geometry" />
        </mxCell>
        <mxCell id="QU69OevxGvZ5Ek9eJyny-84" value="No" style="text;html=1;strokeColor=none;fillColor=none;align=center;verticalAlign=middle;whiteSpace=wrap;rounded=0;" vertex="1" parent="1">
          <mxGeometry x="150.02999999999997" y="566.25" width="40" height="20" as="geometry" />
        </mxCell>
        <mxCell id="QU69OevxGvZ5Ek9eJyny-92" style="edgeStyle=orthogonalEdgeStyle;rounded=0;orthogonalLoop=1;jettySize=auto;html=1;exitX=0.5;exitY=1;exitDx=0;exitDy=0;entryX=0.5;entryY=0;entryDx=0;entryDy=0;" edge="1" parent="1" source="QU69OevxGvZ5Ek9eJyny-85" target="QU69OevxGvZ5Ek9eJyny-87">
          <mxGeometry relative="1" as="geometry" />
        </mxCell>
        <mxCell id="QU69OevxGvZ5Ek9eJyny-94" style="edgeStyle=orthogonalEdgeStyle;rounded=0;orthogonalLoop=1;jettySize=auto;html=1;exitX=0;exitY=0.5;exitDx=0;exitDy=0;entryX=0;entryY=0.5;entryDx=0;entryDy=0;" edge="1" parent="1" source="QU69OevxGvZ5Ek9eJyny-85" target="QU69OevxGvZ5Ek9eJyny-66">
          <mxGeometry relative="1" as="geometry">
            <Array as="points">
              <mxPoint x="160" y="363" />
              <mxPoint x="160" y="310" />
            </Array>
          </mxGeometry>
        </mxCell>
        <mxCell id="QU69OevxGvZ5Ek9eJyny-85" value="port{$id} link down?" style="rhombus;whiteSpace=wrap;html=1;" vertex="1" parent="1">
          <mxGeometry x="176.26" y="342.5" width="157.51" height="40" as="geometry" />
        </mxCell>
        <mxCell id="QU69OevxGvZ5Ek9eJyny-87" value="LAN_PLUG++" style="rounded=1;whiteSpace=wrap;html=1;" vertex="1" parent="1">
          <mxGeometry x="210.01000000000002" y="407.5" width="90" height="25" as="geometry" />
        </mxCell>
        <mxCell id="QU69OevxGvZ5Ek9eJyny-90" style="edgeStyle=orthogonalEdgeStyle;rounded=0;orthogonalLoop=1;jettySize=auto;html=1;exitX=0.5;exitY=1;exitDx=0;exitDy=0;entryX=0.5;entryY=0;entryDx=0;entryDy=0;" edge="1" parent="1" source="QU69OevxGvZ5Ek9eJyny-88" target="QU69OevxGvZ5Ek9eJyny-66">
          <mxGeometry relative="1" as="geometry" />
        </mxCell>
        <mxCell id="QU69OevxGvZ5Ek9eJyny-88" value="LAN_PLUG=0" style="rounded=1;whiteSpace=wrap;html=1;" vertex="1" parent="1">
          <mxGeometry x="210.01000000000002" y="250" width="90" height="25" as="geometry" />
        </mxCell>
        <mxCell id="QU69OevxGvZ5Ek9eJyny-93" value="No" style="text;html=1;strokeColor=none;fillColor=none;align=center;verticalAlign=middle;whiteSpace=wrap;rounded=0;" vertex="1" parent="1">
          <mxGeometry x="250" y="387.5" width="40" height="20" as="geometry" />
        </mxCell>
        <mxCell id="QU69OevxGvZ5Ek9eJyny-95" value="Yes" style="text;html=1;strokeColor=none;fillColor=none;align=center;verticalAlign=middle;whiteSpace=wrap;rounded=0;" vertex="1" parent="1">
          <mxGeometry x="159.08" y="342.5" width="40" height="20" as="geometry" />
        </mxCell>
        <mxCell id="QU69OevxGvZ5Ek9eJyny-97" value="" style="endArrow=none;html=1;rounded=0;" edge="1" parent="1">
          <mxGeometry width="50" height="50" relative="1" as="geometry">
            <mxPoint x="159" y="420" as="sourcePoint" />
            <mxPoint x="160" y="350" as="targetPoint" />
          </mxGeometry>
        </mxCell>
        <mxCell id="QU69OevxGvZ5Ek9eJyny-98" value="" style="endArrow=none;html=1;rounded=0;" edge="1" parent="1">
          <mxGeometry width="50" height="50" relative="1" as="geometry">
            <mxPoint x="159.07999999999998" y="420" as="sourcePoint" />
            <mxPoint x="210" y="420" as="targetPoint" />
          </mxGeometry>
        </mxCell>
        <mxCell id="QU69OevxGvZ5Ek9eJyny-101" value="" style="endArrow=none;html=1;rounded=0;" edge="1" parent="1">
          <mxGeometry width="50" height="50" relative="1" as="geometry">
            <mxPoint x="315.03" y="620.72" as="sourcePoint" />
            <mxPoint x="360" y="621" as="targetPoint" />
          </mxGeometry>
        </mxCell>
        <mxCell id="QU69OevxGvZ5Ek9eJyny-102" value="" style="endArrow=none;html=1;rounded=0;" edge="1" parent="1">
          <mxGeometry width="50" height="50" relative="1" as="geometry">
            <mxPoint x="360" y="622" as="sourcePoint" />
            <mxPoint x="360" y="576" as="targetPoint" />
          </mxGeometry>
        </mxCell>
        <mxCell id="QU69OevxGvZ5Ek9eJyny-104" value="" style="endArrow=none;html=1;rounded=0;" edge="1" parent="1">
          <mxGeometry width="50" height="50" relative="1" as="geometry">
            <mxPoint x="544" y="514.47" as="sourcePoint" />
            <mxPoint x="590" y="514.75" as="targetPoint" />
          </mxGeometry>
        </mxCell>
        <mxCell id="QU69OevxGvZ5Ek9eJyny-105" value="" style="endArrow=none;html=1;rounded=0;" edge="1" parent="1">
          <mxGeometry width="50" height="50" relative="1" as="geometry">
            <mxPoint x="590" y="515" as="sourcePoint" />
            <mxPoint x="590" y="475" as="targetPoint" />
          </mxGeometry>
        </mxCell>
        <mxCell id="QU69OevxGvZ5Ek9eJyny-106" style="edgeStyle=orthogonalEdgeStyle;rounded=0;orthogonalLoop=1;jettySize=auto;html=1;exitX=0.5;exitY=1;exitDx=0;exitDy=0;" edge="1" parent="1" source="QU69OevxGvZ5Ek9eJyny-107" target="QU69OevxGvZ5Ek9eJyny-109">
          <mxGeometry relative="1" as="geometry" />
        </mxCell>
        <mxCell id="QU69OevxGvZ5Ek9eJyny-107" value="Check USB Status" style="rounded=1;whiteSpace=wrap;html=1;" vertex="1" parent="1">
          <mxGeometry x="890" y="200" width="110" height="30" as="geometry" />
        </mxCell>
        <mxCell id="QU69OevxGvZ5Ek9eJyny-108" style="edgeStyle=orthogonalEdgeStyle;rounded=0;orthogonalLoop=1;jettySize=auto;html=1;exitX=0.5;exitY=1;exitDx=0;exitDy=0;entryX=0;entryY=0.5;entryDx=0;entryDy=0;" edge="1" parent="1" source="QU69OevxGvZ5Ek9eJyny-109" target="QU69OevxGvZ5Ek9eJyny-111">
          <mxGeometry relative="1" as="geometry">
            <Array as="points">
              <mxPoint x="945" y="300" />
              <mxPoint x="840" y="300" />
              <mxPoint x="840" y="325" />
            </Array>
          </mxGeometry>
        </mxCell>
        <mxCell id="QU69OevxGvZ5Ek9eJyny-109" value="Device &amp;gt; 4?" style="rhombus;whiteSpace=wrap;html=1;" vertex="1" parent="1">
          <mxGeometry x="872.5" y="250" width="145" height="40" as="geometry" />
        </mxCell>
        <mxCell id="QU69OevxGvZ5Ek9eJyny-110" style="edgeStyle=orthogonalEdgeStyle;rounded=0;orthogonalLoop=1;jettySize=auto;html=1;entryX=1;entryY=0.5;entryDx=0;entryDy=0;" edge="1" parent="1" source="QU69OevxGvZ5Ek9eJyny-111" target="QU69OevxGvZ5Ek9eJyny-119">
          <mxGeometry relative="1" as="geometry">
            <Array as="points">
              <mxPoint x="1030" y="325" />
              <mxPoint x="1030" y="420" />
            </Array>
            <mxPoint x="1080" y="430" as="targetPoint" />
          </mxGeometry>
        </mxCell>
        <mxCell id="QU69OevxGvZ5Ek9eJyny-111" value="USB_PLUG=0" style="rounded=1;whiteSpace=wrap;html=1;" vertex="1" parent="1">
          <mxGeometry x="885" y="310" width="120" height="30" as="geometry" />
        </mxCell>
        <mxCell id="QU69OevxGvZ5Ek9eJyny-112" value="USB_PLUG=1" style="rounded=1;whiteSpace=wrap;html=1;" vertex="1" parent="1">
          <mxGeometry x="885" y="350" width="120" height="30" as="geometry" />
        </mxCell>
        <mxCell id="QU69OevxGvZ5Ek9eJyny-113" value="" style="endArrow=none;html=1;rounded=0;" edge="1" parent="1">
          <mxGeometry width="50" height="50" relative="1" as="geometry">
            <mxPoint x="840" y="365" as="sourcePoint" />
            <mxPoint x="840" y="320" as="targetPoint" />
          </mxGeometry>
        </mxCell>
        <mxCell id="QU69OevxGvZ5Ek9eJyny-114" value="" style="endArrow=classic;html=1;rounded=0;entryX=0;entryY=0.5;entryDx=0;entryDy=0;" edge="1" parent="1" target="QU69OevxGvZ5Ek9eJyny-112">
          <mxGeometry width="50" height="50" relative="1" as="geometry">
            <mxPoint x="840" y="365" as="sourcePoint" />
            <mxPoint x="880" y="370" as="targetPoint" />
          </mxGeometry>
        </mxCell>
        <mxCell id="QU69OevxGvZ5Ek9eJyny-115" value="Yes" style="text;html=1;strokeColor=none;fillColor=none;align=center;verticalAlign=middle;whiteSpace=wrap;rounded=0;" vertex="1" parent="1">
          <mxGeometry x="840" y="350" width="40" height="20" as="geometry" />
        </mxCell>
        <mxCell id="QU69OevxGvZ5Ek9eJyny-116" value="No" style="text;html=1;strokeColor=none;fillColor=none;align=center;verticalAlign=middle;whiteSpace=wrap;rounded=0;" vertex="1" parent="1">
          <mxGeometry x="840" y="310" width="40" height="20" as="geometry" />
        </mxCell>
        <mxCell id="QU69OevxGvZ5Ek9eJyny-117" value="" style="endArrow=none;html=1;rounded=0;" edge="1" parent="1">
          <mxGeometry width="50" height="50" relative="1" as="geometry">
            <mxPoint x="1005" y="364.66" as="sourcePoint" />
            <mxPoint x="1030" y="365" as="targetPoint" />
          </mxGeometry>
        </mxCell>
        <mxCell id="QU69OevxGvZ5Ek9eJyny-118" style="edgeStyle=orthogonalEdgeStyle;rounded=0;orthogonalLoop=1;jettySize=auto;html=1;entryX=0.5;entryY=0;entryDx=0;entryDy=0;" edge="1" parent="1" source="QU69OevxGvZ5Ek9eJyny-119" target="QU69OevxGvZ5Ek9eJyny-121">
          <mxGeometry relative="1" as="geometry" />
        </mxCell>
        <mxCell id="QU69OevxGvZ5Ek9eJyny-119" value="Check DECT Status" style="rounded=1;whiteSpace=wrap;html=1;" vertex="1" parent="1">
          <mxGeometry x="885.01" y="407.5" width="120" height="25" as="geometry" />
        </mxCell>
        <mxCell id="QU69OevxGvZ5Ek9eJyny-120" style="edgeStyle=orthogonalEdgeStyle;rounded=0;orthogonalLoop=1;jettySize=auto;html=1;exitX=0.5;exitY=1;exitDx=0;exitDy=0;entryX=0;entryY=0.5;entryDx=0;entryDy=0;" edge="1" parent="1" source="QU69OevxGvZ5Ek9eJyny-121" target="QU69OevxGvZ5Ek9eJyny-122">
          <mxGeometry relative="1" as="geometry">
            <Array as="points">
              <mxPoint x="945" y="503.75" />
              <mxPoint x="840" y="503.75" />
              <mxPoint x="840" y="528.75" />
            </Array>
          </mxGeometry>
        </mxCell>
        <mxCell id="QU69OevxGvZ5Ek9eJyny-121" value="03 in byte 3~7?" style="rhombus;whiteSpace=wrap;html=1;" vertex="1" parent="1">
          <mxGeometry x="858.13" y="446.25" width="173.75" height="45" as="geometry" />
        </mxCell>
        <mxCell id="QU69OevxGvZ5Ek9eJyny-122" value="DECT_Connected=0" style="rounded=1;whiteSpace=wrap;html=1;" vertex="1" parent="1">
          <mxGeometry x="885" y="513.75" width="120" height="30" as="geometry" />
        </mxCell>
        <mxCell id="QU69OevxGvZ5Ek9eJyny-146" style="edgeStyle=orthogonalEdgeStyle;rounded=0;orthogonalLoop=1;jettySize=auto;html=1;exitX=0.5;exitY=1;exitDx=0;exitDy=0;" edge="1" parent="1" source="QU69OevxGvZ5Ek9eJyny-123" target="QU69OevxGvZ5Ek9eJyny-137">
          <mxGeometry relative="1" as="geometry" />
        </mxCell>
        <mxCell id="QU69OevxGvZ5Ek9eJyny-123" value="DECT_Connected=1" style="rounded=1;whiteSpace=wrap;html=1;" vertex="1" parent="1">
          <mxGeometry x="885" y="553.75" width="120" height="30" as="geometry" />
        </mxCell>
        <mxCell id="QU69OevxGvZ5Ek9eJyny-124" value="" style="endArrow=none;html=1;rounded=0;" edge="1" parent="1">
          <mxGeometry width="50" height="50" relative="1" as="geometry">
            <mxPoint x="840" y="568.75" as="sourcePoint" />
            <mxPoint x="840" y="523.75" as="targetPoint" />
          </mxGeometry>
        </mxCell>
        <mxCell id="QU69OevxGvZ5Ek9eJyny-125" value="" style="endArrow=classic;html=1;rounded=0;entryX=0;entryY=0.5;entryDx=0;entryDy=0;" edge="1" parent="1" target="QU69OevxGvZ5Ek9eJyny-123">
          <mxGeometry width="50" height="50" relative="1" as="geometry">
            <mxPoint x="840" y="568.75" as="sourcePoint" />
            <mxPoint x="880" y="573.75" as="targetPoint" />
          </mxGeometry>
        </mxCell>
        <mxCell id="QU69OevxGvZ5Ek9eJyny-126" value="Yes" style="text;html=1;strokeColor=none;fillColor=none;align=center;verticalAlign=middle;whiteSpace=wrap;rounded=0;" vertex="1" parent="1">
          <mxGeometry x="840" y="553.75" width="40" height="20" as="geometry" />
        </mxCell>
        <mxCell id="QU69OevxGvZ5Ek9eJyny-127" value="No" style="text;html=1;strokeColor=none;fillColor=none;align=center;verticalAlign=middle;whiteSpace=wrap;rounded=0;" vertex="1" parent="1">
          <mxGeometry x="840" y="513.75" width="40" height="20" as="geometry" />
        </mxCell>
        <mxCell id="QU69OevxGvZ5Ek9eJyny-131" value="" style="endArrow=none;html=1;rounded=0;" edge="1" parent="1">
          <mxGeometry width="50" height="50" relative="1" as="geometry">
            <mxPoint x="775" y="569" as="sourcePoint" />
            <mxPoint x="820" y="569" as="targetPoint" />
          </mxGeometry>
        </mxCell>
        <mxCell id="QU69OevxGvZ5Ek9eJyny-132" value="" style="endArrow=none;html=1;rounded=0;" edge="1" parent="1">
          <mxGeometry width="50" height="50" relative="1" as="geometry">
            <mxPoint x="820" y="569" as="sourcePoint" />
            <mxPoint x="820" y="528" as="targetPoint" />
          </mxGeometry>
        </mxCell>
        <mxCell id="QU69OevxGvZ5Ek9eJyny-144" value="" style="endArrow=classic;html=1;rounded=0;" edge="1" parent="1">
          <mxGeometry width="50" height="50" relative="1" as="geometry">
            <mxPoint x="255.10999999999999" y="175" as="sourcePoint" />
            <mxPoint x="255" y="200" as="targetPoint" />
          </mxGeometry>
        </mxCell>
        <mxCell id="QU69OevxGvZ5Ek9eJyny-154" style="edgeStyle=orthogonalEdgeStyle;rounded=0;orthogonalLoop=1;jettySize=auto;html=1;exitX=0.5;exitY=1;exitDx=0;exitDy=0;entryX=0.5;entryY=0;entryDx=0;entryDy=0;" edge="1" parent="1" source="QU69OevxGvZ5Ek9eJyny-148" target="QU69OevxGvZ5Ek9eJyny-153">
          <mxGeometry relative="1" as="geometry" />
        </mxCell>
        <mxCell id="QU69OevxGvZ5Ek9eJyny-157" style="edgeStyle=orthogonalEdgeStyle;rounded=0;orthogonalLoop=1;jettySize=auto;html=1;exitX=0.5;exitY=1;exitDx=0;exitDy=0;entryX=0.5;entryY=0;entryDx=0;entryDy=0;" edge="1" parent="1" source="QU69OevxGvZ5Ek9eJyny-148" target="QU69OevxGvZ5Ek9eJyny-151">
          <mxGeometry relative="1" as="geometry" />
        </mxCell>
        <mxCell id="QU69OevxGvZ5Ek9eJyny-158" style="edgeStyle=orthogonalEdgeStyle;rounded=0;orthogonalLoop=1;jettySize=auto;html=1;exitX=0.5;exitY=1;exitDx=0;exitDy=0;entryX=0.5;entryY=0;entryDx=0;entryDy=0;" edge="1" parent="1" source="QU69OevxGvZ5Ek9eJyny-148" target="QU69OevxGvZ5Ek9eJyny-152">
          <mxGeometry relative="1" as="geometry" />
        </mxCell>
        <mxCell id="QU69OevxGvZ5Ek9eJyny-148" value="&lt;font style=&quot;font-size: 18px;&quot; face=&quot;Times New Roman&quot;&gt;Check the Value of Matrix ${WIFI_2G_ENABLE}${WIFI_5G_ENABLE}&lt;/font&gt;" style="rounded=0;whiteSpace=wrap;html=1;" vertex="1" parent="1">
          <mxGeometry x="274" y="710" width="620" height="60" as="geometry" />
        </mxCell>
        <mxCell id="QU69OevxGvZ5Ek9eJyny-163" value="" style="edgeStyle=orthogonalEdgeStyle;rounded=0;orthogonalLoop=1;jettySize=auto;html=1;" edge="1" parent="1" source="QU69OevxGvZ5Ek9eJyny-151" target="QU69OevxGvZ5Ek9eJyny-159">
          <mxGeometry relative="1" as="geometry" />
        </mxCell>
        <mxCell id="QU69OevxGvZ5Ek9eJyny-151" value="&lt;font face=&quot;Times New Roman&quot; style=&quot;font-size: 18px;&quot;&gt;[11]&lt;/font&gt;" style="rounded=1;whiteSpace=wrap;html=1;" vertex="1" parent="1">
          <mxGeometry x="274" y="827" width="120" height="60" as="geometry" />
        </mxCell>
        <mxCell id="QU69OevxGvZ5Ek9eJyny-171" style="edgeStyle=orthogonalEdgeStyle;rounded=0;orthogonalLoop=1;jettySize=auto;html=1;exitX=0.5;exitY=1;exitDx=0;exitDy=0;entryX=0.5;entryY=0;entryDx=0;entryDy=0;" edge="1" parent="1" source="QU69OevxGvZ5Ek9eJyny-152" target="QU69OevxGvZ5Ek9eJyny-170">
          <mxGeometry relative="1" as="geometry">
            <Array as="points">
              <mxPoint x="834" y="1110" />
              <mxPoint x="585" y="1110" />
            </Array>
          </mxGeometry>
        </mxCell>
        <mxCell id="QU69OevxGvZ5Ek9eJyny-152" value="&lt;font face=&quot;Times New Roman&quot; style=&quot;font-size: 18px;&quot;&gt;[00]&lt;/font&gt;" style="rounded=1;whiteSpace=wrap;html=1;" vertex="1" parent="1">
          <mxGeometry x="774" y="827" width="120" height="60" as="geometry" />
        </mxCell>
        <mxCell id="QU69OevxGvZ5Ek9eJyny-164" value="" style="edgeStyle=orthogonalEdgeStyle;rounded=0;orthogonalLoop=1;jettySize=auto;html=1;" edge="1" parent="1" source="QU69OevxGvZ5Ek9eJyny-153" target="QU69OevxGvZ5Ek9eJyny-160">
          <mxGeometry relative="1" as="geometry" />
        </mxCell>
        <mxCell id="QU69OevxGvZ5Ek9eJyny-153" value="&lt;font face=&quot;Times New Roman&quot; style=&quot;font-size: 18px;&quot;&gt;[10] or [01]&lt;/font&gt;" style="rounded=1;whiteSpace=wrap;html=1;" vertex="1" parent="1">
          <mxGeometry x="524" y="827" width="120" height="60" as="geometry" />
        </mxCell>
        <mxCell id="QU69OevxGvZ5Ek9eJyny-159" value="&lt;font face=&quot;Times New Roman&quot; style=&quot;font-size: 18px;&quot;&gt;Returrn 0&lt;/font&gt;" style="rounded=1;whiteSpace=wrap;html=1;" vertex="1" parent="1">
          <mxGeometry x="274" y="935" width="120" height="60" as="geometry" />
        </mxCell>
        <mxCell id="QU69OevxGvZ5Ek9eJyny-165" value="" style="edgeStyle=orthogonalEdgeStyle;rounded=0;orthogonalLoop=1;jettySize=auto;html=1;" edge="1" parent="1" source="QU69OevxGvZ5Ek9eJyny-160" target="QU69OevxGvZ5Ek9eJyny-159">
          <mxGeometry relative="1" as="geometry" />
        </mxCell>
        <mxCell id="QU69OevxGvZ5Ek9eJyny-168" value="" style="edgeStyle=orthogonalEdgeStyle;rounded=0;orthogonalLoop=1;jettySize=auto;html=1;" edge="1" parent="1" source="QU69OevxGvZ5Ek9eJyny-160" target="QU69OevxGvZ5Ek9eJyny-167">
          <mxGeometry relative="1" as="geometry" />
        </mxCell>
        <mxCell id="QU69OevxGvZ5Ek9eJyny-160" value="&lt;font face=&quot;Times New Roman&quot; style=&quot;font-size: 18px;&quot;&gt;Other componemts&lt;br&gt;are unplug?&lt;/font&gt;" style="rhombus;whiteSpace=wrap;html=1;" vertex="1" parent="1">
          <mxGeometry x="457" y="920" width="254.5" height="90" as="geometry" />
        </mxCell>
        <mxCell id="QU69OevxGvZ5Ek9eJyny-166" value="&lt;font face=&quot;Times New Roman&quot; style=&quot;font-size: 18px;&quot;&gt;No&lt;/font&gt;" style="text;html=1;strokeColor=none;fillColor=none;align=center;verticalAlign=middle;whiteSpace=wrap;rounded=0;" vertex="1" parent="1">
          <mxGeometry x="410" y="940" width="40" height="20" as="geometry" />
        </mxCell>
        <mxCell id="QU69OevxGvZ5Ek9eJyny-167" value="&lt;font size=&quot;3&quot; face=&quot;Times New Roman&quot;&gt;ERP_APPLIABLE=1&lt;/font&gt;" style="rounded=1;whiteSpace=wrap;html=1;" vertex="1" parent="1">
          <mxGeometry x="498" y="1040" width="173" height="40" as="geometry" />
        </mxCell>
        <mxCell id="QU69OevxGvZ5Ek9eJyny-169" value="&lt;font face=&quot;Times New Roman&quot; style=&quot;font-size: 18px;&quot;&gt;Yes&lt;/font&gt;" style="text;html=1;strokeColor=none;fillColor=none;align=center;verticalAlign=middle;whiteSpace=wrap;rounded=0;" vertex="1" parent="1">
          <mxGeometry x="539" y="1010" width="40" height="20" as="geometry" />
        </mxCell>
        <mxCell id="QU69OevxGvZ5Ek9eJyny-176" style="edgeStyle=orthogonalEdgeStyle;rounded=0;orthogonalLoop=1;jettySize=auto;html=1;exitX=0.5;exitY=1;exitDx=0;exitDy=0;entryX=0.5;entryY=0;entryDx=0;entryDy=0;" edge="1" parent="1" source="QU69OevxGvZ5Ek9eJyny-170" target="QU69OevxGvZ5Ek9eJyny-173">
          <mxGeometry relative="1" as="geometry" />
        </mxCell>
        <mxCell id="QU69OevxGvZ5Ek9eJyny-177" style="edgeStyle=orthogonalEdgeStyle;rounded=0;orthogonalLoop=1;jettySize=auto;html=1;exitX=0.5;exitY=1;exitDx=0;exitDy=0;entryX=0.5;entryY=0;entryDx=0;entryDy=0;" edge="1" parent="1" source="QU69OevxGvZ5Ek9eJyny-170" target="QU69OevxGvZ5Ek9eJyny-175">
          <mxGeometry relative="1" as="geometry" />
        </mxCell>
        <mxCell id="QU69OevxGvZ5Ek9eJyny-178" style="edgeStyle=orthogonalEdgeStyle;rounded=0;orthogonalLoop=1;jettySize=auto;html=1;exitX=0.5;exitY=1;exitDx=0;exitDy=0;entryX=0.5;entryY=0;entryDx=0;entryDy=0;" edge="1" parent="1" source="QU69OevxGvZ5Ek9eJyny-170" target="QU69OevxGvZ5Ek9eJyny-174">
          <mxGeometry relative="1" as="geometry" />
        </mxCell>
        <mxCell id="QU69OevxGvZ5Ek9eJyny-170" value="&lt;font style=&quot;&quot; face=&quot;Times New Roman&quot;&gt;&lt;font style=&quot;font-size: 18px;&quot;&gt;Check the Value of Matrix&lt;br&gt;${DSL_PLUG}${ETH_PLUG}${PON_PLUG}${USB_PLUG}${LAN_PLUG}${DECT_Connected}&lt;/font&gt;&lt;br&gt;&lt;/font&gt;" style="rounded=0;whiteSpace=wrap;html=1;" vertex="1" parent="1">
          <mxGeometry x="200" y="1140" width="772" height="70" as="geometry" />
        </mxCell>
        <mxCell id="QU69OevxGvZ5Ek9eJyny-187" value="" style="edgeStyle=orthogonalEdgeStyle;rounded=0;orthogonalLoop=1;jettySize=auto;html=1;" edge="1" parent="1" source="QU69OevxGvZ5Ek9eJyny-173" target="QU69OevxGvZ5Ek9eJyny-179">
          <mxGeometry relative="1" as="geometry" />
        </mxCell>
        <mxCell id="QU69OevxGvZ5Ek9eJyny-173" value="&lt;font face=&quot;Times New Roman&quot; style=&quot;font-size: 18px;&quot;&gt;[100000] or&lt;br&gt;[010000] or&lt;br&gt;[001000] or&lt;br&gt;[000001]&amp;nbsp; &amp;nbsp;&amp;nbsp;&lt;br&gt;&lt;/font&gt;" style="rounded=1;whiteSpace=wrap;html=1;" vertex="1" parent="1">
          <mxGeometry x="200.03" y="1270" width="120" height="110" as="geometry" />
        </mxCell>
        <mxCell id="QU69OevxGvZ5Ek9eJyny-192" style="edgeStyle=orthogonalEdgeStyle;rounded=0;orthogonalLoop=1;jettySize=auto;html=1;exitX=0.5;exitY=1;exitDx=0;exitDy=0;entryX=0.5;entryY=0;entryDx=0;entryDy=0;" edge="1" parent="1" source="QU69OevxGvZ5Ek9eJyny-174" target="QU69OevxGvZ5Ek9eJyny-183">
          <mxGeometry relative="1" as="geometry" />
        </mxCell>
        <mxCell id="QU69OevxGvZ5Ek9eJyny-174" value="&lt;font face=&quot;Times New Roman&quot; style=&quot;font-size: 18px;&quot;&gt;[000000]&lt;br&gt;&lt;/font&gt;" style="rounded=1;whiteSpace=wrap;html=1;" vertex="1" parent="1">
          <mxGeometry x="852" y="1270" width="120" height="40" as="geometry" />
        </mxCell>
        <mxCell id="QU69OevxGvZ5Ek9eJyny-191" style="edgeStyle=orthogonalEdgeStyle;rounded=0;orthogonalLoop=1;jettySize=auto;html=1;exitX=0.5;exitY=1;exitDx=0;exitDy=0;" edge="1" parent="1" source="QU69OevxGvZ5Ek9eJyny-175" target="QU69OevxGvZ5Ek9eJyny-180">
          <mxGeometry relative="1" as="geometry" />
        </mxCell>
        <mxCell id="QU69OevxGvZ5Ek9eJyny-175" value="&lt;font face=&quot;Times New Roman&quot; style=&quot;font-size: 18px;&quot;&gt;[000010]&lt;br&gt;&lt;/font&gt;" style="rounded=1;whiteSpace=wrap;html=1;" vertex="1" parent="1">
          <mxGeometry x="526" y="1270" width="120" height="40" as="geometry" />
        </mxCell>
        <mxCell id="QU69OevxGvZ5Ek9eJyny-179" value="&lt;font size=&quot;3&quot; face=&quot;Times New Roman&quot;&gt;ERP_APPLIABLE=1&lt;/font&gt;" style="rounded=1;whiteSpace=wrap;html=1;" vertex="1" parent="1">
          <mxGeometry x="173.52999999999997" y="1410" width="173" height="40" as="geometry" />
        </mxCell>
        <mxCell id="QU69OevxGvZ5Ek9eJyny-189" value="" style="edgeStyle=orthogonalEdgeStyle;rounded=0;orthogonalLoop=1;jettySize=auto;html=1;" edge="1" parent="1" source="QU69OevxGvZ5Ek9eJyny-180" target="QU69OevxGvZ5Ek9eJyny-181">
          <mxGeometry relative="1" as="geometry" />
        </mxCell>
        <mxCell id="QU69OevxGvZ5Ek9eJyny-180" value="&lt;font face=&quot;Times New Roman&quot; style=&quot;font-size: 18px;&quot;&gt;DSL_PLUG=1&lt;/font&gt;" style="rounded=1;whiteSpace=wrap;html=1;" vertex="1" parent="1">
          <mxGeometry x="519" y="1340" width="134" height="40" as="geometry" />
        </mxCell>
        <mxCell id="QU69OevxGvZ5Ek9eJyny-181" value="&lt;font size=&quot;3&quot; face=&quot;Times New Roman&quot;&gt;ERP_APPLIABLE=2&lt;/font&gt;" style="rounded=1;whiteSpace=wrap;html=1;" vertex="1" parent="1">
          <mxGeometry x="499.5" y="1410" width="173" height="40" as="geometry" />
        </mxCell>
        <mxCell id="QU69OevxGvZ5Ek9eJyny-193" style="edgeStyle=orthogonalEdgeStyle;rounded=0;orthogonalLoop=1;jettySize=auto;html=1;exitX=0.5;exitY=1;exitDx=0;exitDy=0;entryX=0.5;entryY=0;entryDx=0;entryDy=0;" edge="1" parent="1" source="QU69OevxGvZ5Ek9eJyny-183" target="QU69OevxGvZ5Ek9eJyny-186">
          <mxGeometry relative="1" as="geometry" />
        </mxCell>
        <mxCell id="QU69OevxGvZ5Ek9eJyny-183" value="&lt;div style=&quot;text-align: justify;&quot;&gt;&lt;font face=&quot;Times New Roman&quot; style=&quot;font-size: 18px;&quot;&gt;DSL_PLUG=1&lt;br&gt;ETH_PLUG=1&lt;br&gt;PON_PLUG=1&lt;br&gt;USB_PLUG=1&lt;br&gt;DECT_PLUG=1&lt;/font&gt;&lt;/div&gt;" style="rounded=1;whiteSpace=wrap;html=1;align=center;" vertex="1" parent="1">
          <mxGeometry x="828.5" y="1330" width="167" height="130" as="geometry" />
        </mxCell>
        <mxCell id="QU69OevxGvZ5Ek9eJyny-186" value="&lt;font size=&quot;3&quot; face=&quot;Times New Roman&quot;&gt;ERP_APPLIABLE=3&lt;/font&gt;" style="rounded=1;whiteSpace=wrap;html=1;" vertex="1" parent="1">
          <mxGeometry x="825.5" y="1480" width="173" height="40" as="geometry" />
        </mxCell>
      </root>
    </mxGraphModel>
  </diagram>
</mxfile>
